<?xml version="1.0" encoding="UTF-8"?>
<svg id="a" xmlns="http://www.w3.org/2000/svg" viewBox="0 0 707 142">
<defs>
    <style>
      .cls-1 {
        fill: #834a00;
      }
    </style>
  </defs>
  <path d="M244,66.4c-14.3,1.4-28.6,3.6-42.5,7.3-6.8,1.8-13.4,4.5-20,7-1.3.5-2.9,1.6-3.3,2.8-1.3,3.6-4.3,5.1-7.3,6.7-1.1.6-2.2,1-3.3,1.5v.6c4.1.1,8.1.3,12.1.4,19.6.7,39.1,0,58.6-2.1,19.6-2.1,38.9-5.4,57.8-10.7,5-1.4,9.8-3.6,14.6-5.6.9-.3,2-1.5,1.9-2.2,0-.8-1.3-1.8-2.2-2.1-5.4-1.4-10.9-3.2-16.4-3.8-16.7-1.8-33.4-1.4-50.1.2ZM348,62.8c5.7,5.9,5.6,11.6-.5,17.3-6.1,5.7-13.7,8.8-21.4,11.6-15,5.4-30.5,8.7-46.1,11.8-23.3,4.7-46.9,7.3-70.6,8.2-16.9.6-33.8.3-50.7-.2-11.2-.4-22.4-1.7-33.5-3-6.3-.8-12.6-2.3-18-6.1-5.3-3.8-6.1-8.3-2.9-14.1,4.5-8,11.4-13.5,18.8-18.6,11.1-7.6,23.2-13.4,35.5-18.7,16.1-7,32.2-13.9,48.7-20,19.7-7.3,40.1-12.1,61-14.7,7-.9,13.9-1.2,20.7,1.2,1.1.4,2.2.9,3.1,1.6,3.4,2.5,4.1,5.4-.3,8-3.4,2.1-7.6,3.4-11.7,3.9-25.6,3.4-49.6,11.6-73.1,21.9-.5.2-.9.5-1.1.6,10.9-1.3,22-3,33.1-3.9,12.5-1,25.1-1.8,37.6-1.6,12.8.2,25.6,1.2,38.3,2.7,10.6,1.2,20.9,4,30.1,9.8,1,.7,2.1,1.4,3,2.3Z"/>
  <path d="M681.5,66c6,5.7,6,11.9,0,18-6.5,6.7-14.7,10-23,12.7-14.6,4.8-29.6,7.8-44.6,10-23,3.3-46,5.2-69.1,4.8-10.1-.2-20.1-.7-30.1-1-1.3,0-2.9.5-3.9,1.5-3.2,3.5-6.5,6.9-9.2,10.9-3.3,4.9-7.5,7.4-12.5,8.3-7,1.2-14,1-20.2-3.6-3.7-2.7-4.1-6.4-1.2-10,3.1-3.8,6.3-7.6,9.5-11.5-5.8-1.6-11.1-3.3-15.7-7.3-5.1-4.4-6.6-9.2-5-16.2,4.1-18.7,12.8-34.5,23.9-48.7,2.7-3.5,5.8-6.7,8.6-10.2,3.5-4.2,7.8-6.2,12.7-7.1,5.9-1.1,11.6-.7,17.3,1.5,1.6.6,3.1,1.6,4.4,2.7,3,2.5,2.8,6-.3,8.3-1,.8-2.2,1.4-3.3,1.7-2.3.5-3.8,2-5.3,3.8-11.3,13.6-19.5,29.1-23.9,47.2-.2.8-.5,1.5-.4,2.3,0,1.5-.1,3.9.6,4.5,1.7,1.2,3.7,1.7,5.8,0,20.7-16,43.5-26.1,68-31.8,18.6-4.4,37.4-6.3,56.3-5.8,15.7.4,31.2,2.1,46.4,7,5.2,1.7,10.2,3.8,14.4,7.8ZM652.7,75.9c1-.7,1.9-1.8,3-2.9-29.2-10.3-86.3-6.6-122.9,20,18.4.5,36.1.1,53.9-1.6,16.4-1.6,32.7-4.1,48.8-8.4,6-1.6,11.9-3.4,17.2-7.2Z"/>
  <path d="M44.8,132.3c-6.5-.1-12.8-1-18.6-4.6-5.2-3.3-6.9-7.4-4.7-13.8,5.7-16.1,11.3-32.3,17.7-48.1,5.6-14.1,12.3-27.7,18.2-41.7,2.5-5.9,6.3-9.5,11.6-11.3,8.7-3,17.5-3.7,26.4-1.1,2.4.7,4.6,2.5,6.5,4.4.8.8.9,3.4.4,4.6-5.1,12.8-10.8,25.2-15.5,38.1-6.1,16.5-11.4,33.3-17,50-.2.7.3,2.3.9,2.6,5.4,3.2,4.1,8.9.2,12.3-5.8,5-12.5,7-19.5,8-2.1.3-4.3.3-6.5.5Z"/>
  <path d="M389.4,46.1c0-8.4,0-16.9,0-25.3,0-3,1.5-4.9,3.4-6.3,5.7-4.2,12.1-5,18.6-4.2,3.6.4,7.1,1.9,10.5,3.4,2.9,1.3,4.3,4,4.3,8.1,0,21.5,1.5,42.8,3.9,64,.7,6,1.5,12,2.5,18,.5,2.9,0,5.5-1.9,7-2.8,2.1-5.7,4.4-8.8,5.5-6.8,2.4-13.8,2.2-20.7-.2-5.6-2-8.1-6.5-8.5-13.5-.6-10.1-1.8-20.1-2.5-30.2-.6-8.7-.9-17.4-1.3-26.1.1,0,.2,0,.4,0Z"/>
  </svg>