<?xml version="1.0" encoding="UTF-8"?>
<svg id="Layer_2" xmlns="http://www.w3.org/2000/svg" viewBox="0 0 929.18 234.27">
  <path d="M150.3,199.92v-85.99c0-20.26-20.25-34.33-39.2-27.16-19.9,7.53-34.36,11.29-43.39,11.29-6.76,0-12.76-1.59-17.99-4.77-5.23-3.18-7.85-6.86-7.85-11.04,0-4.84,125.13-68.24,130.41-70.38,2.99-1.21,7.89-2.56,15.46-2.56,8.53,0,15.37,1.95,20.53,5.84,5.15,3.9,7.73,9.26,7.73,16.1v163.13c0,19.09-11.03,28.64-33.09,28.64-9.82,0-17.71-1.95-23.67-5.84-5.96-3.89-8.94-9.64-8.94-17.24Z"/>
  <path d="M588.3,206.92v-85.99c0-20.26-20.25-34.33-39.2-27.16-19.9,7.53-34.36,11.29-43.39,11.29-6.76,0-12.76-1.59-17.99-4.77-5.23-3.18-7.85-6.86-7.85-11.04,0-4.84,125.13-68.24,130.41-70.38,2.99-1.21,7.89-2.56,15.46-2.56,8.53,0,15.37,1.95,20.53,5.84,5.15,3.9,7.73,9.26,7.73,16.1v163.13c0,19.09-11.03,28.64-33.09,28.64-9.82,0-17.71-1.95-23.67-5.84-5.96-3.89-8.94-9.64-8.94-17.24Z"/>
  <path d="M307.22,101.46c10.95-7.69,22.86-13.39,35.74-17.1,12.88-3.7,27.29-5.56,43.23-5.56s29.42,1.69,42.39,5.06c12.96,3.37,24.31,8.17,34.05,14.39,9.74,6.22,17.27,13.56,22.58,22.01,5.31,8.46,7.97,17.29,7.97,26.5,0,13.39-5.19,25.55-15.58,36.47-10.38,10.92-24.87,19.45-43.47,25.57-18.6,6.13-39.65,9.19-63.15,9.19-27.05,0-50.39-3.89-70.04-11.68-19.65-7.79-34.66-19.3-45.04-34.55-10.38-15.24-15.58-33.88-15.58-55.92,0-17.95,3.14-34,9.42-48.15,6.28-14.15,15.29-25.88,27.05-35.19,11.75-9.31,26-16.33,42.75-21.09,16.74-4.75,35.82-7.12,57.24-7.12s38.76,2.37,54.46,7.12c15.7,4.75,27.53,10.64,35.5,17.67,7.97,7.03,11.95,13.77,11.95,20.23,0,3.9-2.5,7.43-7.49,10.61-4.99,3.18-11.35,4.77-19.08,4.77-6.76,0-13.04-1.26-18.84-3.78-5.8-2.52-10.07-6.01-12.8-10.47-3.71-5.7-9.58-10.28-17.63-13.75-8.05-3.47-17.39-5.2-28.01-5.2-8.54,0-17.03,1.45-25.48,4.35-8.45,2.9-15.58,6.82-21.37,11.75-11.75,10.07-18.68,28.02-20.77,53.85ZM372.43,189.93c16.26,0,29.7-3.92,40.33-11.75,10.63-7.84,15.94-18.11,15.94-30.84,0-8.64-2.5-16.07-7.49-22.3-4.99-6.22-11.83-10.97-20.53-14.25-8.69-3.28-18.27-4.92-28.74-4.92s-19.52,1.57-28.62,4.7c-9.1,3.13-16.42,7.67-21.98,13.61-5.55,5.94-8.33,12.89-8.33,20.87,0,12.82,5.63,23.51,16.91,32.06,11.27,8.55,25.44,12.82,42.5,12.82Z"/>
  <path d="M743.22,113.46c10.95-7.69,22.86-13.39,35.74-17.1,12.88-3.7,27.29-5.56,43.23-5.56s29.42,1.69,42.39,5.06c12.96,3.37,24.31,8.17,34.05,14.39,9.74,6.22,17.27,13.56,22.58,22.01,5.31,8.46,7.97,17.29,7.97,26.5,0,13.39-5.19,25.55-15.58,36.47-10.38,10.92-24.87,19.45-43.47,25.57-18.6,6.13-39.65,9.19-63.15,9.19-27.05,0-50.39-3.89-70.04-11.68-19.65-7.79-34.66-19.3-45.04-34.55-10.38-15.24-15.58-33.88-15.58-55.92,0-17.95,3.14-34,9.42-48.15,6.28-14.15,15.29-25.88,27.05-35.19,11.75-9.31,26-16.33,42.75-21.09,16.74-4.75,35.82-7.12,57.24-7.12s38.76,2.37,54.46,7.12c15.7,4.75,27.53,10.64,35.5,17.67,7.97,7.03,11.95,13.77,11.95,20.23,0,3.9-2.5,7.43-7.49,10.61-4.99,3.18-11.35,4.77-19.08,4.77-6.76,0-13.04-1.26-18.84-3.78-5.8-2.52-10.07-6.01-12.8-10.47-3.71-5.7-9.58-10.28-17.63-13.75-8.05-3.47-17.39-5.2-28.01-5.2-8.54,0-17.03,1.45-25.48,4.35-8.45,2.9-15.58,6.82-21.37,11.75-11.75,10.07-18.68,28.02-20.77,53.85ZM808.43,201.93c16.26,0,29.7-3.92,40.33-11.75,10.63-7.84,15.94-18.11,15.94-30.84,0-8.64-2.5-16.07-7.49-22.3-4.99-6.22-11.83-10.97-20.53-14.25-8.69-3.28-18.27-4.92-28.74-4.92s-19.52,1.57-28.62,4.7c-9.1,3.13-16.42,7.67-21.98,13.61-5.55,5.94-8.33,12.89-8.33,20.87,0,12.82,5.63,23.51,16.91,32.06,11.27,8.55,25.44,12.82,42.5,12.82Z"/>
</svg>