<?xml version="1.0" encoding="UTF-8"?><svg id="a" xmlns="http://www.w3.org/2000/svg" viewBox="0 0 707 101"><path d="M625.7,56.8h-34.7c1,1.2,1.6,2.3,2.5,2.9,4.5,2.9,13.4,2.4,17.7-.9.3-.3.8-.6,1.2-.5,4.1.4,8.2.8,12.3,1.2,0,.2.2.4.2.6-1.3,1.1-2.5,2.3-3.9,3.2-5.3,3.5-11.3,5.1-17.5,5.3-5.3.1-10.7-.3-15.8-1.2-5.8-1.1-8.9-5.2-9.6-11-.2-1.6-.4-3.1-.4-4.7,0-5.1,2.2-8.1,7.2-9.5,5.3-1.5,10.7-1.1,16.1-.4,5.8.7,11.4,2.2,16.5,5.1,2.1,1.2,4,2.7,5.6,4.5,1.3,1.5,1.8,3.6,2.8,5.7ZM610.7,51.8c-.4-.5-.6-.8-.8-1-3.2-2.7-14.5-3.6-18-1.3-.6.4-1,1.2-1.8,2.3h20.6Z"/><path d="M645,46.3c1.5-3.9,4.4-5.1,7.9-5.3,6.9-.3,13.6.9,19.8,4,9.2,4.6,12,15.5,2.9,24.8-.3.3-.9.6-1.3.6-3.9,0-7.9,0-11.9,0,1.7-3.1,3.5-5.6,4.5-8.3,2.7-7.3-.6-12.5-8.3-13.5-1.7-.2-3.6,0-5.4.3-3,.6-4.2,2.2-3.8,5.3.6,5.3-.8,10-4.2,14-.5.6-1.3,1.3-1.9,1.3-3.9.1-7.9,0-12.5,0,3.5-4.6,5.9-9,5.1-14.3-.8-5.2-3.9-9.1-7.9-13.1,4.5,0,8.5-.1,12.5,0,.9,0,1.8,1.2,2.6,2,.6.5,1.1,1.2,1.8,2Z"/><path d="M571.9,56.2h-34.7c.9,1.1,1.5,2.1,2.4,2.7,4.6,3,13.5,2.5,17.9-.9.4-.3.9-.5,1.4-.5,4,.4,8,.8,12,1.2.1.2.2.4.4.6-2,1.4-3.9,3.2-6.1,4.3-7.2,3.7-15,4.6-23,3.8-3.3-.3-6.7-.9-9.9-2-6.9-2.5-10.4-10.8-7.7-17.6,1.3-3.2,3.9-5.2,7-5.7,4.5-.7,9.1-1.1,13.6-1,6.1.1,12.1,1.6,17.5,4.4,2.4,1.3,4.7,3,6.5,5,1.3,1.3,1.7,3.5,2.7,5.5ZM557,51.4c-.3-.4-.4-.7-.5-.8-3.2-2.9-14.8-3.7-18.3-1.3-.6.4-.8,1.1-1.5,2.1h20.3Z"/><path d="M237.9,52.4h-34.2c1.2,1.2,1.9,2.3,2.9,2.7,4.7,2.1,9.5,2.4,14.5,1.3.6-.2,1.4-.4,1.8-.9,1.5-2.2,3.6-1.6,5.7-1.4,3,.3,6.1.6,9.5.9-1.2,2.9-3,5-5.6,6.1-2.9,1.2-5.9,2.2-9,2.5-7.9.8-15.7,0-23.2-2.8-2.1-.8-4.1-1.9-5.9-3.3-4.9-3.8-5-9.1-.2-13.1,3.7-3.1,8.2-4.5,12.9-5.5,7-1.5,14-1.6,21,.2,7.1,1.9,10.2,6.2,9.9,13.4ZM204.6,47.7h20c-1.7-4.3-16.4-4.6-20,0Z"/><path d="M291.8,53h-33.6c-.1.2-.3.3-.4.5,1,.8,1.8,1.9,2.9,2.3,4.5,1.9,9.2,2.1,13.9,1.1.5-.1,1.2-.2,1.4-.6,2-2.8,4.8-1.8,7.3-1.6,2.7.2,5.4.5,8.4.8-1.5,2.9-3.5,4.9-6.1,5.9-3.2,1.2-6.6,2.1-10,2.5-7.2.7-14.4,0-21.3-2.4-2.2-.8-4.4-2-6.3-3.4-5-3.8-5-9.6,0-13.5,3.3-2.7,7.2-4,11.3-4.9,8-1.7,16-1.7,23.8,1.1,4.6,1.6,7.7,4.5,8.5,9.5.1.9.1,1.8.2,2.8ZM278.7,48.4c-2.1-2.8-4.9-2.9-7.6-3.1-7.4-.5-11,.4-12.6,3.1h20.2Z"/><path d="M25.9,55.4c3.9-.4,7.9-.8,11.8-1.1.3,0,.7.2,1,.5,5.5,4.2,11.8,3.8,18.1,2.7.8-.1,1.4-1.1,2.1-1.7-.7-.8-1.3-2.1-2.1-2.2-3.6-.8-7.2-1.2-10.8-1.9-4.3-.8-8.5-1.6-12.7-2.7-2.3-.6-4.9-1.5-5.1-4.4-.3-2.9,2-4.3,4.2-5.6,4.7-2.7,9.9-4.1,15.2-4.4,5.6-.3,11.2.1,16.8.3,1,0,2.1.4,3.1.7,3.2,1.1,4.3,2.9,4,6.5-4.5.3-9,.7-13.8,1,.1-3-1.8-3.8-4.1-3.7-3.1.1-6.2.5-9.3,1.1-.8.2-1.4,1.5-2.1,2.3.8.6,1.5,1.4,2.4,1.6,6,1.3,12.1,2.3,18.1,3.6,2.1.5,4.2,1.3,6.1,2.3,2.5,1.3,3.9,3.6,3.6,6.5-.3,2.7-2.4,4.4-4.8,4.8-5,.8-10.1,1.5-15.1,1.6-7.1,0-14.2-.9-20.9-3.8-2-.9-3.8-2-5.7-3.1,0-.3.1-.5.2-.8Z"/><path d="M303.9,40.3h13c0,1.1-.2,2-.2,2.9,3-1.1,5.9-2.4,9-3.1,5.5-1.3,11-.9,16.4,1,4.1,1.4,5.6,3.6,5.7,7.9,0,5.2,0,10.3,0,15.7h-12.6c-.2-2.3-.4-4.5-.6-6.7-.1-1.6,0-3.2-.2-4.7-.3-5.6-1.8-7-7.4-7.3-.4,0-.8,0-1.1,0-9,.7-10.2,3.1-9.4,10.6.3,2.6.5,5.2.7,7.9-4.1,0-8.1,0-12.2,0-.4,0-1-.5-1-.9-1.5-7.7-1.6-15.3-.1-23.1Z"/><path d="M121.5,49.7c-4.1-3.8-7.7-7.5-9.1-12.7,4.6,0,9,0,13.4,0,.5,0,1.2.7,1.5,1.3,1.1,1.9,2,4,3,5.9,4.1-2.1,7.8-4.1,11.5-6,1.1-.5,2.4-.8,3.6-.9,3.9-.1,7.9,0,12.5,0-7.2,4.1-13.8,7.9-20.7,11.9,6.9,5.7,14.1,9.6,21.4,13.8-6.4-.3-12.9,1.7-18.9-2.4-3.1-2.1-6.5-3.6-10.1-5.6-1.7,2.3-3.3,4.6-5.1,6.8-.4.6-1.2,1.3-1.8,1.3-4.4.1-8.8,0-13.7,0,2.9-6,7.6-9.8,12.6-13.6Z"/><path d="M401.7,46.7c-4.5.3-8.4.6-12.3.8-.5,0-1.1-.3-1.5-.7-2.8-2.5-10.5-3.5-13.9-1.7-.6.3-1.3,1.2-1.2,1.6.2.6.9,1.5,1.6,1.6,3.1.7,6.3,1.3,9.5,1.8,4.6.8,9.2,1.4,13.7,2.4,1.7.3,3.5,1.1,5,2,2.7,1.7,2.9,4.8,0,6.4-2.7,1.6-5.8,2.9-8.9,3.4-9.5,1.5-19,1.5-28.3-1-2.9-.8-5.8-1.9-7.9-4.8,4.4-.3,8.5-.6,12.6-.9.3,0,.7,0,.8.2,4.2,4,9.4,3.2,14.5,3,1.3,0,2.7-.3,3.9-.8.7-.3,1.2-1.2,1.8-1.8-.7-.5-1.3-1.4-2-1.5-3.3-.6-6.7-1-10-1.5-4.2-.7-8.4-1.4-12.6-2.3-1.6-.3-3.1-1.1-4.5-1.9-3.6-2.2-3.7-5.9,0-7.8,2.6-1.4,5.5-2.4,8.4-2.8,7.2-1,14.5-.8,21.7.8,3.5.8,6.8,2.1,9.6,5.5Z"/><path d="M462.5,58.8c-3.6,2.2-7.1,4.4-10.6,6.5-.6.4-1.4.7-2.1.8-4.4,0-8.8,0-13.3-.4,6.1-3.9,12.1-7.8,18.6-12.1-6.2-4.1-11.9-7.9-18.1-12,4.9,0,9.3,0,13.7,0,.6,0,1.2.5,1.8.8,3,1.9,6,3.9,9.3,6,1.7-1.8,3.3-3.7,5-5.4.7-.7,1.8-1.3,2.8-1.3,4.1-.1,8.2,0,12.3,0,.1.3.3.5.4.8-3.6,3.8-7.2,7.7-10.7,11.3,4.4,3.6,9.5,7.8,14.5,12-.1.2-.2.5-.3.7-1.6,0-3.2-.2-4.7,0-6.3.7-11.8-.7-16-5.8-.7-.8-1.8-1.4-2.6-2.1Z"/><path d="M184.9,56.3s.1,0,.2.2c1,1.9,2.1,3.8,3.3,6-7.2,1.3-14.2,1.9-20.8-1.4-4.3-2.2-4.6-6.6-4.5-10.8,0-1.8.5-3.5.8-5.5h-6.8c1.4-2.5,2.5-4.5,3.9-6.4.4-.5,1.6-.6,2.5-.5,2.9.4,5.2-.2,6.9-2.8.7-1.1,2.3-1.8,3.7-2.1,4.4-1,8.8-1.8,13.7-2.7-2.3,2.7-4.4,5-6.5,7.3,0,.2.1.4.2.6h8.1c-1.1,2.3-1.8,4.3-2.8,6.1-.2.4-1,.8-1.6.8-1.9,0-3.9,0-5.9-.1-1.3,0-2.1.3-2.2,1.6-.2,2.5-.3,5.1-.3,7.6,0,1.7,1.1,2.4,2.7,2.4,1.8,0,3.6-.1,5.5-.2Z"/><path d="M517.3,48.9h-8.2c.2,3.2.6,6.2.7,9.3,0,1.3.5,2,1.8,2.1,1.9,0,3.7,0,5.9,0-.2,1.6-.4,3.3-.8,4.9-.1.5-1,1.2-1.6,1.2-4.8.2-9.6.5-14.3.1-4.5-.4-5.2-2-4.8-6.6.2-3.2-.2-6.4-.4-9.6,0-1.2-.7-1.8-1.9-1.6-3.8.7-6.2-.7-7-4.6-.1-.6-.5-1.2-.9-2.1h6.4c-1.1-1.7-2-3.1-3-4.6,3-1.1,5.9-2.2,8.8-3.1.4-.1,1.2.4,1.6.8,1.6,1.8,3.1,3.8,4.8,5.6.6.7,1.6,1.1,2.5,1.3.7.2,1.5,0,2.2,0,5.5,0,6.8,1,8.2,6.9Z"/><path d="M101.3,63.3c-4.4,0-8.3,0-12.2,0-.6,0-1.4-.5-1.8-1-7.3-8.8-6.2-17.4,1.4-25.3.3-.3.9-.7,1.3-.7,3.9,0,7.9,0,12,.3-7.7,8.7-8.5,17.4-.7,26.7Z"/><path d="M413.7,41.5c4.3,0,8.2,0,12.1,0,.4,0,1.1.7,1.3,1.2,2.3,7.1,2.7,14.4,1.2,21.8-.1.5-.8,1.2-1.2,1.3-4,0-8.1,0-12.3,0,1.6-8.4,1-16.3-1-24.3Z"/><path d="M114.4,27.1c-2.1,1.5-3.9,2.8-5.8,4-.5.3-1.1.5-1.7.5-3.7,0-7.3,0-11.4,0,3.8-4.7,9.8-6,18.8-4.5Z"/><path d="M410.8,32.6c3.8,0,7.6-.3,11.4.2,1.1.1,1.9,2.3,3.3,4.1-3.2,0-5.7,0-8.2,0-.6,0-1.2,0-1.8,0-3.8,0-3.8,0-4.7-4.3Z"/></svg>