<?xml version="1.0" encoding="UTF-8"?><svg id="a" xmlns="http://www.w3.org/2000/svg" viewBox="0 0 707 101">
<defs>
    <style>
      .cls-1 {
        fill: #2f2929;
        
      }
    </style>
  </defs>
<path class="cls-1" d="M231.3,78c.7-3.3,1.4-6.3,2.1-9.4.9-4.4,2.9-8.3,5.7-11.8,7.6-9.2,18.3-6,23.2,2.5,2.7,4.6,2.7,9.2.4,13.9-3.9,8.2-10.1,12.9-19.4,13.6-5.2.4-10.2-.2-15.2-1.8-12.4-3.9-24-9.4-34.7-16.8-6.6-4.6-11.7-10.4-13.7-18.4-4.3-17.4,7.4-33.5,25.7-35.4,11.1-1.2,21.8.6,32.6,2.9,2.2.5,3.9,1.8,4.7,4.1.7,2,0,3.4-2.2,3.4-1.3,0-2.6-.1-3.9-.3-5.6-.8-11.2-1.9-16.8-2.5-7.3-.7-14.5.1-21,4-4.1,2.4-7.3,5.7-8.5,10.3-1,4.1-1.6,8.4-1.9,12.6-.2,3.3,1.2,6.3,3.5,8.6,2.1,2.1,4.2,4.3,6.7,5.9,9.4,6.2,19.5,10.8,30.3,14,.6.2,1.2.3,2.1.5ZM241.3,78c7.3-1.1,13.8-8.6,13.7-15.1,0-.4,0-.9-.1-1.3-.6-2-1.9-2.7-3.5-1.5-2.2,1.7-4.6,3.5-5.9,5.9-1.9,3.6-2.7,7.7-4.2,12Z"/><path class="cls-1" d="M621,16.9c6,0,12,0,18.1,0,3.1,0,5.3,1.6,6.6,4.4.8,1.7,0,3.1-1.9,3.2-1.9.1-3.8,0-5.7,0-10.2.2-20.4.3-30.7.5-1.7,0-3.5.5-5.1.9-6.2,1.7-9,6.1-8.3,12.5.5,4.3,2.3,7.9,4.9,11.2.1.2.3.3.4.5,4.1,6.8,10.1,11,17.6,13.3,10.9,3.3,21.8,6.6,32.7,9.9,1.3.4,2.1,0,2.9-1.1,4-5.2,8.7-9.8,14.5-13,9.7-5.5,19.6-1.8,23.5,8.6,2,5.2-1,11.9-6.5,13.9-2.7,1-5.6,1.5-8.5,1.6-5.1,0-10.3-.4-15.4-.6-.8,0-1.9.3-2.3.9-2.9,3.4-7.3,3.2-9.3-.8-1.1-2.2-2.6-2.9-4.7-3.5-11.1-2.8-22-6.3-32.5-10.9-13-5.6-20.4-16.2-25.6-28.8-1.4-3.4-1.5-7.1-.5-10.7,1.5-5.5,4.7-9.5,10.4-10.6,4.8-.9,9.7-1.3,14.6-1.7,3.6-.3,7.2,0,10.9,0h0ZM664.4,75.5c5,.3,9.4.3,13.4-1.8,2.6-1.4,4-4.3,3.5-6.9-.2-1.2-.6-2.1-2.1-1.6-5.8,1.8-10.2,5.7-14.8,10.3Z"/><path class="cls-1" d="M407.5,20.4c2.8.2,4.8,1.6,6.1,4.2,3.3,6.7,6.4,13.5,10,20,6.2,11.2,12.6,22.3,19,33.4.3.6.6,1.2.9,1.7.7,1.3,1.5,2.9,0,3.9-1,.6-2.9.7-4,.3-1.4-.6-3-1.8-3.7-3.1-10.4-18.6-21.8-36.6-30.3-56.2-.3-.7-.7-1.5-.6-2.2.2-1.6,1.2-2.2,2.8-2Z"/><path class="cls-1" d="M18.9,19.4c2.8,0,5,1.9,5.5,5.2,2.5,16,8.3,31,13.4,46.3,0,.2.1.4.2.6,1.2,3.4,1.1,4.9-.5,5.6-2.1,1-5.6-.5-6.9-2.9-.1-.3-.3-.5-.4-.8-4.7-14.9-9.3-29.7-13.9-44.6-.6-1.8-.7-3.8-.9-5.8-.3-2.7.8-3.8,3.5-3.7Z"/></svg>