<?xml version="1.0" encoding="UTF-8"?>
<svg id="Layer_1" xmlns="http://www.w3.org/2000/svg" viewBox="0 0 794 236">
  <defs>
    <style>
      .cls-1 {
        fill: #fff;
      }
    </style>
  </defs>
  <path class="cls-1" d="M794,236H0V0h794v236ZM246.44,61.99c-.07-.25-.14-.49-.21-.74,2.35-1.35,4.68-2.76,7.07-4.03,10.34-5.51,21.1-9.96,32.63-12.35,8.57-1.77,18.89-9.56,18.1-21.59-.55-8.39-5.15-13.46-11.02-17.55-6.58-4.58-14.67-5.09-22.34-3.85-8.22,1.33-16.39,3.48-24.31,6.09-11.25,3.71-21.97,8.77-32.19,14.86-9.36,5.58-18.69,11.15-27.07,18.17-10.89,9.13-21.99,18.03-32.62,27.47-12.51,11.1-24.47,22.75-33.61,37.01-7.45,11.63-12.44,23.98-12.78,37.9-.11,4.37-.13,8.86.75,13.1,2.01,9.7,9.13,15.83,16.69,21.2,6.97,4.95,15.33,6.95,23.56,8.54,10.18,1.96,20.49,3.35,30.81,4.44,8.49.89,17.06,1.28,25.59,1.35,8.46.06,16.95-.31,25.39-.94,9.29-.69,18.58-1.62,27.79-2.94,7.86-1.13,15.64-2.89,23.43-4.5,12.81-2.65,25.06-7.14,37.12-12.04,11.63-4.72,22.84-10.29,32.94-17.98,5.62-4.28,10.56-9.15,14.76-14.72,4-5.3,6.13-11.43,6.82-18.14,1.08-10.51-.89-20.29-7.38-28.61-7.4-9.49-16.89-16.43-27.99-21.37-16.53-7.36-34.07-9.43-51.76-10.21-11.16-.49-22.39.56-33.59.95-2.2.08-4.39.32-6.58.48ZM538.94,136.6c-.07-.63-.2-1.19-.18-1.74.78-25.26,4.62-49.98,13.39-73.78.74-2,2.2-3.8,3.62-5.45,2.46-2.86,6.12-4.92,6.34-9.21.19-3.47.85-7.22-.14-10.4-3.03-9.79-10.17-15.85-19.94-18.3-4.18-1.05-8.75-.81-13.14-.72-9.04.19-15.34,5.14-19.36,12.77-2.85,5.41-4.87,11.28-7.08,17.02-6.9,17.91-11.14,36.49-13.65,55.49-1.84,13.9-2.35,27.88-1.77,41.86.21,5.13,1.37,10.38,3.03,15.26,3.65,10.73,11.77,17.85,21.01,23.78,1.45.93,1.63,1.61,1.02,3.15-1.76,4.39-4.03,8.75-4.78,13.34-1.74,10.57.06,20.33,9.54,27.06,2.87,2.04,5.94,3.94,9.18,5.27,5.32,2.18,11.02.88,16.55.92,1.28,0,2.69-.2,3.83-.75,6.59-3.19,11.5-7.81,13.74-15.15,1.91-6.26,4.42-12.33,6.81-18.43.29-.74,1.53-1.62,2.28-1.58,10.35.56,20.68,1.76,31.02,1.82,17.82.09,35.67-.04,53.32-3.23,5.5-.99,11.09-1.5,16.55-2.66,12.49-2.65,24.85-5.81,36.64-10.85,9.85-4.21,19.59-8.57,27.5-16.16,7.81-7.48,14.16-15.62,14.89-27,.44-6.89.46-13.78-2.73-20.03-4.18-8.2-10.5-14.69-17.93-20.08-6.16-4.47-13.02-7.48-20.15-10.08-13.8-5.04-28.08-7.73-42.64-8.53-11.92-.65-23.85-.14-35.76,1.54-15.28,2.16-29.65,7.02-43.29,13.92-11.91,6.02-22.25,14.42-31.75,23.74-5.51,5.4-10.54,11.31-15.96,17.18ZM49.26,235.04c6.61.32,13.43-.79,19.5-4.98,4.97-3.43,9.64-7.34,12.09-12.88,1.48-3.36,1.59-7.38,2-11.13.49-4.44.44-9.16-2.88-12.43-3.04-2.99-2.68-6.08-2.15-9.53.1-.66.11-1.33.19-1.99,2.6-22.99,5.17-45.98,7.84-68.96.78-6.76,1.83-13.48,2.81-20.21.64-4.42,1.39-8.82,2.05-13.23.9-6.07,1.75-12.14,2.62-18.21.07-.49.1-.99.16-1.49.58-5,1.23-10,1.7-15.01.11-1.19-.09-2.55-.59-3.64-2.63-5.75-6.59-10.24-12.5-12.89-7.1-3.18-14.47-3.05-21.99-2.4-10.01.87-17.02,6.32-22.61,14.14-.23.33-.44.71-.53,1.1-1.12,4.55-2.27,9.1-3.3,13.67-.82,3.62-1.5,7.27-2.21,10.92-.87,4.47-1.72,8.93-2.55,13.41-.98,5.29-1.98,10.59-2.89,15.9-1.36,7.94-2.85,15.87-3.95,23.85-3.28,23.77-6.58,47.54-9.44,71.37-.8,6.63-.91,13.57.11,20.15,1.64,10.6,9.34,16.94,18.31,21.7,5.5,2.91,11.56,3.25,18.23,2.79ZM440.89,216.15c11.47,0,15.3-1.73,22.02-9.52,1.52-1.77,3.07-4,3.41-6.2.61-3.96.81-8.13.29-12.09-.68-5.21-2.23-10.31-3.39-15.46-1.22-5.39-2.46-10.78-3.63-16.19-1.31-6.05-2.59-12.11-3.82-18.18-1.53-7.54-3.01-15.09-4.47-22.65-.96-4.97-1.95-9.94-2.74-14.94-2.13-13.41-4.15-26.83-6.23-40.24-.27-1.71-.4-3.51-1.04-5.09-2.07-5.13-6.08-8.69-10.47-11.72-5.97-4.12-12.86-4.76-19.84-4.18-4.78.4-9.5,1.24-13.23,4.82-3.15,3.02-6.48,6.05-6.87,10.62-.37,4.28-.22,8.66.15,12.95.39,4.55,1.35,9.06,2,13.59,1.16,8.06,2.21,16.14,3.42,24.19,1.54,10.24,3.19,20.47,4.79,30.71.83,5.32,1.64,10.65,2.52,15.96.54,3.26,1.1,6.52,1.8,9.75,1.28,5.94,2.75,11.84,4,17.8.85,4.05,1.4,8.15,2.16,12.21.41,2.18.63,4.5,1.53,6.48,2.9,6.39,7.51,11.37,13.72,14.61,4.55,2.38,9.54,3.29,13.92,2.77Z"/>
  <path d="M246.44,61.99c2.19-.17,4.38-.41,6.58-.48,11.2-.39,22.43-1.44,33.59-.95,17.69.78,35.23,2.85,51.76,10.21,11.1,4.94,20.59,11.88,27.99,21.37,6.48,8.32,8.45,18.1,7.38,28.61-.69,6.71-2.81,12.84-6.82,18.14-4.2,5.56-9.14,10.44-14.76,14.72-10.1,7.69-21.31,13.25-32.94,17.98-12.07,4.9-24.31,9.39-37.12,12.04-7.79,1.61-15.57,3.37-23.43,4.5-9.22,1.32-18.51,2.25-27.79,2.94-8.44.63-16.93,1-25.39.94-8.54-.07-17.1-.45-25.59-1.35-10.31-1.09-20.63-2.48-30.81-4.44-8.23-1.58-16.59-3.58-23.56-8.54-7.56-5.37-14.68-11.5-16.69-21.2-.88-4.24-.85-8.73-.75-13.1.34-13.92,5.33-26.27,12.78-37.9,9.14-14.26,21.1-25.9,33.61-37.01,10.63-9.43,21.73-18.33,32.62-27.47,8.38-7.02,17.71-12.6,27.07-18.17,10.22-6.09,20.94-11.15,32.19-14.86,7.92-2.61,16.09-4.76,24.31-6.09,7.67-1.24,15.77-.73,22.34,3.85,5.87,4.09,10.47,9.16,11.02,17.55.79,12.03-9.52,19.82-18.1,21.59-11.53,2.38-22.29,6.83-32.63,12.35-2.39,1.28-4.71,2.69-7.07,4.03.07.25.14.49.21.74ZM316.65,115.01c0-.35,0-.7,0-1.05-1.7-.83-3.35-1.81-5.11-2.48-9.05-3.46-18.56-4.56-28.14-5.04-4.04-.2-8.15-.02-12.17.48-8.9,1.12-17.83,2.24-26.63,3.93-9.78,1.87-19.1,5.41-28.07,9.7-5.05,2.42-9.78,5.51-14.6,8.4-4.56,2.73-3.67,7.67-4.79,12.15,42.43,2.23,82.47-5.17,119.51-26.1Z"/>
  <path d="M538.94,136.6c5.42-5.87,10.45-11.78,15.96-17.18,9.5-9.31,19.84-17.71,31.75-23.74,13.65-6.9,28.01-11.76,43.29-13.92,11.91-1.68,23.83-2.2,35.76-1.54,14.57.8,28.85,3.49,42.64,8.53,7.13,2.6,13.99,5.61,20.15,10.08,7.43,5.39,13.74,11.87,17.93,20.08,3.19,6.26,3.17,13.15,2.73,20.03-.73,11.37-7.09,19.51-14.89,27-7.92,7.59-17.65,11.95-27.5,16.16-11.79,5.04-24.15,8.21-36.64,10.85-5.46,1.16-11.05,1.66-16.55,2.66-17.65,3.19-35.5,3.32-53.32,3.23-10.34-.05-20.68-1.26-31.02-1.82-.75-.04-1.99.84-2.28,1.58-2.39,6.1-4.9,12.17-6.81,18.43-2.23,7.34-7.15,11.96-13.74,15.15-1.14.55-2.55.76-3.83.75-5.54-.04-11.23,1.26-16.55-.92-3.24-1.33-6.31-3.23-9.18-5.27-9.48-6.73-11.28-16.5-9.54-27.06.75-4.59,3.03-8.95,4.78-13.34.62-1.54.44-2.22-1.02-3.15-9.24-5.93-17.36-13.04-21.01-23.78-1.66-4.88-2.82-10.13-3.03-15.26-.58-13.98-.07-27.97,1.77-41.86,2.51-18.99,6.75-37.57,13.65-55.49,2.21-5.73,4.23-11.6,7.08-17.02,4.01-7.63,10.32-12.57,19.36-12.77,4.39-.09,8.96-.33,13.14.72,9.77,2.45,16.91,8.51,19.94,18.3.98,3.18.32,6.93.14,10.4-.23,4.29-3.89,6.35-6.34,9.21-1.42,1.65-2.89,3.45-3.62,5.45-8.76,23.8-12.61,48.52-13.39,73.78-.02.55.11,1.11.18,1.74ZM697.18,129.62c-19.2-7.06-38.27-8.06-57.64-2.55-16.09,4.57-30.3,12.39-42.99,24.45,4.08.19,7.38.64,10.65.45,7.51-.44,15.01-1.07,22.49-1.84,5.72-.59,11.48-1.2,17.1-2.38,7.89-1.65,15.73-3.6,23.47-5.86,9.37-2.74,18.58-5.99,26.92-12.27Z"/>
  <path d="M49.26,235.04c-6.67.47-12.74.12-18.23-2.79-8.97-4.75-16.67-11.1-18.31-21.7-1.02-6.58-.91-13.52-.11-20.15,2.86-23.82,6.16-47.59,9.44-71.37,1.1-7.98,2.59-15.91,3.95-23.85.91-5.31,1.91-10.6,2.89-15.9.83-4.47,1.68-8.94,2.55-13.41.71-3.64,1.4-7.3,2.21-10.92,1.03-4.57,2.18-9.12,3.3-13.67.09-.39.3-.77.53-1.1,5.59-7.82,12.6-13.27,22.61-14.14,7.52-.65,14.9-.78,21.99,2.4,5.91,2.65,9.87,7.14,12.5,12.89.5,1.08.7,2.45.59,3.64-.47,5.01-1.12,10.01-1.7,15.01-.06.5-.09,1-.16,1.49-.87,6.07-1.72,12.14-2.62,18.21-.65,4.42-1.41,8.82-2.05,13.23-.98,6.73-2.03,13.46-2.81,20.21-2.67,22.98-5.24,45.97-7.84,68.96-.08.66-.09,1.33-.19,1.99-.53,3.45-.89,6.54,2.15,9.53,3.32,3.26,3.37,7.99,2.88,12.43-.41,3.76-.52,7.78-2,11.13-2.45,5.54-7.11,9.45-12.09,12.88-6.07,4.19-12.89,5.29-19.5,4.98Z"/>
  <path d="M440.89,216.15c-4.38.52-9.37-.39-13.92-2.77-6.21-3.24-10.83-8.23-13.72-14.61-.9-1.98-1.12-4.3-1.53-6.48-.76-4.06-1.31-8.17-2.16-12.21-1.24-5.95-2.71-11.85-4-17.8-.7-3.23-1.26-6.49-1.8-9.75-.88-5.31-1.68-10.64-2.52-15.96-1.6-10.23-3.26-20.46-4.79-30.71-1.21-8.05-2.26-16.13-3.42-24.19-.65-4.53-1.61-9.04-2-13.59-.37-4.29-.52-8.66-.15-12.95.39-4.58,3.72-7.6,6.87-10.62,3.73-3.58,8.46-4.42,13.23-4.82,6.98-.58,13.87.06,19.84,4.18,4.39,3.03,8.4,6.59,10.47,11.72.64,1.58.77,3.38,1.04,5.09,2.08,13.41,4.11,26.84,6.23,40.24.79,5,1.78,9.97,2.74,14.94,1.46,7.56,2.94,15.11,4.47,22.65,1.23,6.07,2.51,12.13,3.82,18.18,1.17,5.4,2.41,10.79,3.63,16.19,1.16,5.15,2.71,10.25,3.39,15.46.52,3.97.33,8.13-.29,12.09-.34,2.2-1.88,4.43-3.41,6.2-6.72,7.78-10.55,9.52-22.02,9.52Z"/>
  <path class="cls-1" d="M316.65,115.01c-37.04,20.93-77.09,28.33-119.51,26.1,1.12-4.49.23-9.43,4.79-12.15,4.82-2.88,9.55-5.98,14.6-8.4,8.96-4.3,18.29-7.83,28.07-9.7,8.81-1.69,17.73-2.81,26.63-3.93,4.02-.5,8.13-.68,12.17-.48,9.58.48,19.09,1.58,28.14,5.04,1.76.67,3.41,1.65,5.11,2.48,0,.35,0,.7,0,1.05Z"/>
  <path class="cls-1" d="M697.18,129.62c-8.34,6.28-17.55,9.53-26.92,12.27-7.74,2.26-15.58,4.21-23.47,5.86-5.62,1.18-11.38,1.79-17.1,2.38-7.48.77-14.98,1.4-22.49,1.84-3.27.19-6.57-.25-10.65-.45,12.69-12.07,26.9-19.88,42.99-24.45,19.37-5.5,38.44-4.51,57.64,2.55Z"/>
</svg>