<?xml version="1.0" encoding="UTF-8"?><svg id="a" xmlns="http://www.w3.org/2000/svg" viewBox="0 0 707 101"><path d="M580.5,93.5c-13.1-.2-25.1-1.9-35.5-8.9-12.2-8.1-20.4-19.1-23.1-33.8-1.5-7.8.7-14.8,5.4-21,8-10.6,19.1-16.2,31.9-18.7,21.2-4.1,40.9.3,59.6,10.6,2.4,1.3,4.6,3,6.8,4.6,2.6,1.8,3.1,3.9,1.7,6.7-3.4,6.8-11.7,8.5-17.9,4.2-17-11.7-35.5-16.9-56.1-12.6-.6.1-1.2.3-1.8.5-9.5,2.8-13.3,9-10.8,18.6,2.5,9.8,8.3,17.6,16.3,23.8.5.4,1.9.1,2.6-.3,11.1-7.1,23.1-12.3,35.8-15.8,9.8-2.7,19.7-4,29.7-1.3,2.3.6,4.6,1.6,6.6,2.9,4,2.4,5.6,6.1,4.1,10.5-1,3.1-2.7,6.2-4.8,8.7-7.7,9.2-18,14.7-29.3,18.3-7.2,2.3-14.6,3-21.2,3.1ZM617.8,67.1c-7.5-6.4-36.2-1.3-45.9,7.9,16.4,3,32,3.4,45.9-7.9Z"/><path d="M228.5,70c5.3-3.5,10.4-7.1,15.7-10.4,8.5-5.3,17.6-9.2,27.8-10.2,2-.2,4.1-.1,6.1.3,5,1,8.2,4.9,8.2,10,0,5.3-2.2,9.9-4.9,14.2-12.6,20.1-38,28.1-59.6,18.4-14.1-6.4-22.9-17.9-27.6-32.5-4-12.4-2.1-23.7,6.5-33.7,10.8-12.6,24.3-20.9,40.7-23.4,13.2-2.1,25.3,1.3,35.1,10.8,4.1,3.9,7.7,8.2,11.5,12.4,1.8,2,1.9,4.2.8,6.6-2.1,4.5-5.7,7.4-10.6,8.5-2.6.6-4.6-.4-6.4-2.5-4.3-4.9-8.3-10.1-13.3-14.2-8.7-7.2-19-9.2-29.8-5.3-4,1.5-7.8,3.9-11.4,6.4-5.8,4.1-7.7,9.9-6.3,16.8,2.2,11.3,8.2,20.4,16.9,27.7.2.1.4.2.6.3ZM241.7,76.6c6.4,1.6,12.2,1.7,18-.1,3.3-1,5.7-3.2,7.5-6.1.5-.8.8-2.3.4-3-.4-.7-1.9-1.2-2.8-1.1-8.6.9-15.7,5.1-23,10.3Z"/><path d="M405.6,48.5c0,9.8,0,19.6,0,29.4,0,1.1.4,2.3.8,3.4,2.8,6.5-1.6,15.2-8.5,16.7-2.9.6-5-.2-6.7-2.7-2.1-3-2.7-6.5-2.6-10.1.2-11.7.5-23.5.8-35.2.2-6.7.5-13.3.8-20,0-.6,0-1.3-.3-1.8-2.4-6.6,3.6-15.1,10.7-15,3.2,0,5.3,2,5.5,5.5.1,2.6-.2,5.3-.2,8,0,7.3,0,14.6,0,21.9-.1,0-.2,0-.4,0Z"/><path d="M70.9,56c-1.2-9.5,2.2-15.4,6.7-20.7,4.9-5.7,10-11.3,15.4-16.5,2.6-2.5,6-4.1,9.3-5.7,1.1-.5,3.5,0,4.2.8.7.9.6,3.1,0,4.3-1.2,2.3-3,4.4-4.7,6.4-3.1,3.5-6.3,7-9.5,10.4-1.8,1.9-2.6,3.9-2.3,6.6,1,9.4,1.9,18.9,2.9,28.3.4,3.7-.7,6.8-2.9,9.6-3.1,3.9-6.7,7-11.7,8.3-3.4.9-5.2-.4-5.4-3.9-.7-10-1.3-20-1.9-28Z"/></svg>